<svg width="16" height="16" viewBox="0 0 16 16" fill="none" xmlns="http://www.w3.org/2000/svg">
<path d="M14.7499 8.5925C14.6319 9.86915 14.1528 11.0858 13.3686 12.1001C12.5844 13.1144 11.5275 13.8843 10.3217 14.3199C9.11586 14.7555 7.81091 14.8386 6.55955 14.5596C5.30819 14.2805 4.16217 13.6509 3.2556 12.7443C2.34902 11.8378 1.71938 10.6917 1.44036 9.44037C1.16133 8.18901 1.24446 6.88406 1.68002 5.67822C2.11558 4.47238 2.88555 3.41552 3.89984 2.63131C4.91412 1.8471 6.13077 1.36798 7.40743 1.25C6.65999 2.2612 6.30031 3.50709 6.39383 4.76106C6.48734 6.01503 7.02782 7.19379 7.91698 8.08295C8.80613 8.9721 9.98489 9.51259 11.2389 9.6061C12.4928 9.69961 13.7387 9.33994 14.7499 8.5925Z" stroke="#707683" stroke-width="2" stroke-linecap="square" stroke-linejoin="round"/>
</svg>
