<svg width="52" height="25" viewBox="0 0 52 25" fill="none" xmlns="http://www.w3.org/2000/svg">
<rect x="0.25" y="0.25" width="51.5" height="23.5" rx="11.75" fill="white" stroke="#90A0B7" stroke-width="0.5"/>
<g clip-path="url(#clip0)">
<path d="M15.0001 15.3332C16.841 15.3332 18.3334 13.8408 18.3334 11.9998C18.3334 10.1589 16.841 8.6665 15.0001 8.6665C13.1591 8.6665 11.6667 10.1589 11.6667 11.9998C11.6667 13.8408 13.1591 15.3332 15.0001 15.3332Z" stroke="#90A0B7" stroke-width="1.5" stroke-linecap="round" stroke-linejoin="round"/>
<path d="M15 4.6665V5.99984" stroke="#90A0B7" stroke-width="1.5" stroke-linecap="round" stroke-linejoin="round"/>
<path d="M15 18V19.3333" stroke="#90A0B7" stroke-width="1.5" stroke-linecap="round" stroke-linejoin="round"/>
<path d="M9.81323 6.81348L10.7599 7.76014" stroke="#90A0B7" stroke-width="1.5" stroke-linecap="round" stroke-linejoin="round"/>
<path d="M19.24 16.2402L20.1867 17.1869" stroke="#90A0B7" stroke-width="1.5" stroke-linecap="round" stroke-linejoin="round"/>
<path d="M7.66675 12H9.00008" stroke="#90A0B7" stroke-width="1.5" stroke-linecap="round" stroke-linejoin="round"/>
<path d="M21 12H22.3333" stroke="#90A0B7" stroke-width="1.5" stroke-linecap="round" stroke-linejoin="round"/>
<path d="M9.81323 17.1869L10.7599 16.2402" stroke="#90A0B7" stroke-width="1.5" stroke-linecap="round" stroke-linejoin="round"/>
<path d="M19.24 7.76014L20.1867 6.81348" stroke="#90A0B7" stroke-width="1.5" stroke-linecap="round" stroke-linejoin="round"/>
</g>
<g filter="url(#filter0_d)">
<circle cx="38.25" cy="12.25" r="9.25" fill="white"/>
<circle cx="38.25" cy="12.25" r="8.25" stroke="#90A0B7" stroke-width="2"/>
</g>
<defs>
<filter id="filter0_d" x="28" y="2" width="22.5" height="22.5" filterUnits="userSpaceOnUse" color-interpolation-filters="sRGB">
<feFlood flood-opacity="0" result="BackgroundImageFix"/>
<feColorMatrix in="SourceAlpha" type="matrix" values="0 0 0 0 0 0 0 0 0 0 0 0 0 0 0 0 0 0 127 0"/>
<feOffset dx="1" dy="1"/>
<feGaussianBlur stdDeviation="1"/>
<feColorMatrix type="matrix" values="0 0 0 0 0.564706 0 0 0 0 0.627451 0 0 0 0 0.717647 0 0 0 0.2 0"/>
<feBlend mode="normal" in2="BackgroundImageFix" result="effect1_dropShadow"/>
<feBlend mode="normal" in="SourceGraphic" in2="effect1_dropShadow" result="shape"/>
</filter>
<clipPath id="clip0">
<rect width="16" height="16" fill="white" transform="translate(7 4)"/>
</clipPath>
</defs>
</svg>
